<svg xmlns="http://www.w3.org/2000/svg" xmlns:xlink="http://www.w3.org/1999/xlink" aria-hidden="true" focusable="false" width="1em" height="1em" style="-ms-transform: rotate(360deg); -webkit-transform: rotate(360deg); transform: rotate(360deg);" preserveAspectRatio="xMidYMid meet" viewBox="0 0 128 128"><path d="M33.79 4.25l-.06.05c-1.69-.56-8.93 4.9-16.7 12.67S3.8 31.98 4.36 33.67l-.06.06l5.92 5.92l.01-.01c.16.12.41.15.73.1c2.62-.47 5.57.36 7.76 2.56l74.1 74.1c10.18 10.18 19.9 8.63 26.07 2.46s7.7-15.91-2.46-26.07l-74.1-74.1c-2.2-2.2-3.03-5.15-2.56-7.77c.06-.33.03-.57-.1-.73l.01-.01l-5.89-5.93z" fill="#E6E6E6"/><linearGradient id="IconifyId-171c3305dae-ba8e51-4" x1="51.553" x2="83.165" y1="79.197" y2="79.197" gradientTransform="rotate(-45.001 63.558 68.304)" gradientUnits="userSpaceOnUse"><stop stop-color="#4CAF50" offset="0"/><stop stop-color="#A4E849" offset=".693"/><stop stop-color="#9CDE47" offset=".76"/><stop stop-color="#86C441" offset=".873"/><stop stop-color="#689F38" offset="1"/></linearGradient><path d="M18.66 40.39l74.35 74.35c9.9 9.9 19.11 8.62 24.85 2.89c5.74-5.74 6.99-14.97-2.89-24.84L66.95 44.76l-48.29-4.37z" fill="url(#IconifyId-171c3305dae-ba8e51-4)"/><path d="M115.58 103.39c-.63.63-1.65.63-2.28 0L38.46 28.55a1.611 1.611 0 1 1 2.28-2.28l74.84 74.84c.62.63.62 1.65 0 2.28z" fill="#fff" opacity=".55"/><path d="M32.68 9.3l2.63 2.63c-.12 3.59 1.29 7.17 3.95 9.83l74.1 74.1c3.88 3.88 5.98 7.88 6.08 11.56c.1 3.81-1.91 6.64-3.62 8.34c-1.66 1.66-4.4 3.63-8.07 3.63c-3.76 0-7.85-2.11-11.83-6.09l-74.1-74.1c-2.55-2.55-5.89-3.96-9.4-3.96c-.14 0-.28 0-.42.01l-2.64-2.64c1.42-2.24 4.81-6.64 10.75-12.57S30.45 10.72 32.68 9.3m1.11-5.06l-.06.06a.789.789 0 0 0-.28-.04c-2.1 0-9.02 5.31-16.42 12.71C9.26 24.74 3.8 31.98 4.36 33.67l-.06.06l5.92 5.92l.01-.01c.11.08.25.12.44.12c.09 0 .19-.01.3-.03c.47-.08.95-.13 1.44-.13c2.21 0 4.52.88 6.32 2.68l74.1 74.1c5.23 5.23 10.35 7.37 14.92 7.37c4.32 0 8.16-1.91 11.16-4.91c6.17-6.17 7.7-15.91-2.46-26.07l-74.1-74.1c-2.2-2.2-3.03-5.15-2.56-7.77c.06-.33.03-.57-.1-.73l.01-.01l-5.91-5.92z" fill="#424242" opacity=".2"/><circle cx="45.04" cy="52.22" r="4.54" fill="#fff" opacity=".69"/><circle cx="31" cy="33.96" r="4.54" fill="#9CCC65"/><circle cx="55.69" cy="58.77" r="2.2" fill="#fff" opacity=".69"/><circle cx="17.46" cy="9.28" r="3.16" fill="#9CCC65"/><circle cx="11.25" cy="15.25" r="1.47" fill="#9CCC65"/><circle cx="69.25" cy="72.71" r="3.81" fill="#fff" opacity=".69"/><circle cx="63.33" cy="62.38" r="1.47" fill="#fff" opacity=".69"/></svg>